Coordinates
version=1
nRows=10
nColumns=40
inDegrees=yes

Units are S.I. units (second, meters, Newtons, ...)
If the header above contains a line with 'inDegrees', this indicates whether rotational values are in degrees (yes) or radians (no).

endheader
time	pelvis_tilt	pelvis_list	pelvis_rotation	pelvis_tx	pelvis_ty	pelvis_tz	hip_flexion_r	hip_adduction_r	hip_rotation_r	knee_angle_r	knee_angle_r_beta	ankle_angle_r	subtalar_angle_r	mtp_angle_r	hip_flexion_l	hip_adduction_l	hip_rotation_l	knee_angle_l	knee_angle_l_beta	ankle_angle_l	subtalar_angle_l	mtp_angle_l	lumbar_extension	lumbar_bending	lumbar_rotation	arm_flex_r	arm_add_r	arm_rot_r	elbow_flex_r	pro_sup_r	wrist_flex_r	wrist_dev_r	arm_flex_l	arm_add_l	arm_rot_l	elbow_flex_l	pro_sup_l	wrist_flex_l	wrist_dev_l
      3.90000000	    -21.53675180	     -2.09781604	     20.62536908	      0.08304633	      1.28393158	     -0.03129634	     45.62822149	    -18.37087748	    -10.78093237	     42.90373764	      0.74881148	    -24.51472576	    -20.43749164	      0.00000000	     83.79467354	     -1.31983245	      3.79286749	     99.33251478	      1.73367944	     10.50928413	    -10.41508001	      0.00000000	    -45.27197420	      3.05628980	     -6.58312352	     53.96911223	     17.24144196	    -43.77746132	     54.04824599	      0.92653945	      0.00000000	      0.00000000	     53.73675294	      8.18627022	    -17.96567186	     40.39886464	      3.19275766	      0.00000000	      0.00000000
      3.91700000	    -21.46733422	     -2.02507158	     20.06025407	      0.08368597	      1.28389712	     -0.03062213	     46.49102522	    -18.17192507	     -9.37092799	     46.73592018	      0.81569569	    -23.80848437	    -21.38094990	      0.00000000	     83.54947708	     -1.78847178	      3.37146086	     96.21285626	      1.67923112	     10.43377378	    -10.99720231	      0.00000000	    -45.40238903	      2.75908701	     -6.23564608	     54.11597392	     17.20659263	    -43.68845483	     53.96977604	      0.91642303	      0.00000000	      0.00000000	     53.80379934	      8.19649318	    -18.04816955	     40.40967458	      3.12032062	      0.00000000	      0.00000000
      3.93300000	    -21.13936535	     -1.97604833	     19.46508337	      0.08448511	      1.28424602	     -0.02987639	     47.43237382	    -17.95312438	     -8.02405152	     51.21227465	      0.89382281	    -22.74808972	    -22.36755989	      0.00000000	     82.63967713	     -2.27413532	      3.07359435	     92.52430383	      1.61485374	     10.01496656	    -11.39871152	      0.00000000	    -45.75601220	      2.58103667	     -5.81015962	     54.33213366	     17.18487766	    -43.57321863	     53.85577388	      0.90173121	      0.00000000	      0.00000000	     53.88517312	      8.21172879	    -18.31754129	     40.42999266	      3.39428447	      0.00000000	      0.00000000
      3.95000000	    -21.11943591	     -1.80766863	     18.53660798	      0.08503775	      1.28426224	     -0.02879062	     49.25775768	    -17.64404040	     -6.10233020	     56.11406830	      0.97937525	    -22.24647879	    -23.13778343	      0.00000000	     81.47439709	     -2.95080731	      2.50832038	     88.47307709	      1.54414649	      9.25467179	    -12.33745355	      0.00000000	    -45.81922743	      2.01552442	     -5.30182330	     54.46820831	     17.20876927	    -43.42321466	     53.83037816	      0.92618504	      0.00000000	      0.00000000	     53.88480702	      8.14076379	    -18.29830348	     40.47150278	      3.05708445	      0.00000000	      0.00000000
      3.96700000	    -20.81736816	     -1.95361400	     17.65112913	      0.08551384	      1.28464788	     -0.02784749	     51.14023195	    -17.02962312	     -4.59369945	     61.39816715	      1.07160017	    -21.61565104	    -23.89881587	      0.00000000	     79.66676326	     -3.63385794	      2.38692674	     84.05226649	      1.46698879	      8.25339593	    -13.31297862	      0.00000000	    -46.04168827	      1.78009102	     -4.56887380	     54.68744210	     17.27178809	    -43.29997897	     53.76451509	      0.93161573	      0.00000000	      0.00000000	     53.87836638	      8.06845235	    -18.39785582	     40.53512262	      2.96757810	      0.00000000	      0.00000000
      3.98300000	    -20.34511128	     -2.24678244	     16.74363082	      0.08600420	      1.28527953	     -0.02690034	     53.13306124	    -16.22733367	     -3.28709936	     66.94699758	      1.16844553	    -21.01306268	    -24.71887436	      0.00000000	     77.27063415	     -4.36320685	      2.47561617	     79.21453521	      1.38255445	      7.03733220	    -14.17498145	      0.00000000	    -46.37205707	      1.68156773	     -3.71464924	     54.94133524	     17.38271621	    -43.15977578	     53.66586063	      0.93674157	      0.00000000	      0.00000000	     53.85997877	      7.99114286	    -18.61860088	     40.60833559	      2.92661702	      0.00000000	      0.00000000
      4.00000000	    -20.09848668	     -2.45101984	     15.60510184	      0.08629910	      1.28556146	     -0.02565397	     55.57344753	    -15.35048520	     -1.70704280	     72.24295385	      1.26087741	    -20.90500493	    -24.90452258	      0.00000000	     74.68233072	     -5.20181320	      2.30036503	     74.28362814	      1.29649389	      5.75145163	    -15.34429202	      0.00000000	    -46.50111904	      1.32070744	     -2.80685718	     55.12690992	     17.50968759	    -42.99733878	     53.61733414	      0.94147918	      0.00000000	      0.00000000	     53.79791214	      7.91145126	    -18.83985151	     40.68315873	      2.91593316	      0.00000000	      0.00000000
      4.01700000	    -19.88756425	     -2.75705689	     14.36810325	      0.08650032	      1.28571895	     -0.02419126	     58.11407968	    -14.34497306	     -0.15709736	     77.15431670	      1.34659686	    -20.64671630	    -24.29497605	      0.00000000	     71.71099160	     -6.10012769	      2.20633008	     69.13090463	      1.20656190	      4.62099305	    -16.10122292	      0.00000000	    -46.57363301	      0.97800460	     -1.81044920	     55.24270342	     17.64910688	    -42.67033234	     53.56471784	      0.94477552	      0.00000000	      0.00000000	     53.68940066	      7.85492167	    -19.30682583	     40.81148545	      3.08120713	      0.00000000	      0.00000000
      4.03300000	    -19.62798989	     -3.13769215	     13.07530466	      0.08673810	      1.28593247	     -0.02249913	     60.69313320	    -13.21988271	      1.23967340	     81.80347027	      1.42773990	    -20.45465848	    -23.60333234	      0.00000000	     68.33242527	     -7.07265180	      2.14204495	     63.75127019	      1.11266957	      3.43408875	    -16.36569055	      0.00000000	    -46.68571985	      0.65904330	     -0.73497024	     55.33644368	     17.79487651	    -42.25535449	     53.48971824	      0.93146576	      0.00000000	      0.00000000	     53.57825561	      7.87685976	    -20.02185133	     40.94698401	      3.27793669	      0.00000000	      0.00000000
      4.05000000	    -19.60252648	     -3.35690854	     11.48003385	      0.08685372	      1.28580523	     -0.02049460	     63.61162883	    -11.93258391	      3.02510258	     86.02980924	      1.50150343	    -19.95260470	    -22.02269212	      0.00000000	     65.04276744	     -8.17589522	      1.58612258	     58.59172844	      1.02261858	      2.01404430	    -17.09641940	      0.00000000	    -46.59515372	      0.03855512	      0.39773409	     55.40684788	     17.93361460	    -41.85025560	     53.41528194	      0.95118203	      0.00000000	      0.00000000	     53.41411815	      7.79616961	    -20.44776118	     41.05656079	      3.12280704	      0.00000000	      0.00000000
